<?xml version="1.0" standalone="no"?>
<!DOCTYPE svg PUBLIC "-//W3C//DTD SVG 20010904//EN"
 "http://www.w3.org/TR/2001/REC-SVG-20010904/DTD/svg10.dtd">
<svg version="1.0" xmlns="http://www.w3.org/2000/svg"
 width="1024.000000pt" height="1024.000000pt" viewBox="0 0 1024.000000 1024.000000"
 preserveAspectRatio="xMidYMid meet">

<g transform="translate(0.000000,1024.000000) scale(0.100000,-0.100000)"
fill="#000000" stroke="none">
<path d="M0 5120 l0 -5120 5120 0 5120 0 0 5120 0 5120 -5120 0 -5120 0 0
-5120z m5282 3045 c38 -51 56 -94 64 -153 8 -66 -7 -112 -72 -222 -31 -52 -63
-110 -71 -128 l-14 -33 -38 73 c-21 40 -55 104 -76 142 -30 55 -39 83 -43 136
-6 83 12 126 94 229 l58 73 34 -38 c18 -22 47 -57 64 -79z m-336 -304 c89 -41
169 -140 214 -268 16 -43 30 -71 33 -63 42 131 82 204 145 265 86 84 180 107
262 65 41 -21 100 -77 100 -96 0 -6 -27 -14 -62 -18 -195 -20 -358 -192 -390
-412 -27 -187 64 -406 198 -474 40 -21 63 -25 129 -25 184 0 321 94 498 344
88 122 192 227 279 279 64 38 212 93 319 118 64 15 147 18 612 21 l537 5 0
-264 c0 -258 -10 -454 -31 -633 -30 -257 -104 -411 -362 -755 -176 -234 -238
-410 -208 -585 14 -77 37 -129 75 -164 30 -28 26 -41 -14 -41 -53 0 -128 119
-156 248 -17 85 -18 238 0 322 8 36 13 66 11 68 -6 7 -46 -69 -70 -131 -43
-115 -66 -249 -72 -424 l-6 -162 30 -18 31 -17 -29 -27 c-28 -26 -29 -30 -29
-123 0 -124 16 -268 41 -376 18 -80 84 -240 99 -240 3 0 0 35 -8 78 -20 114
-11 295 21 394 26 83 80 166 121 188 23 12 28 11 45 -4 20 -18 20 -18 -9 -43
-78 -65 -111 -228 -75 -376 30 -127 121 -298 228 -429 215 -264 329 -513 326
-713 -1 -38 -3 -62 -6 -53 -5 21 -19 23 -26 6 -4 -10 -8 -9 -17 2 -8 11 -10 0
-6 -50 l4 -65 -14 60 c-8 33 -21 66 -28 75 -7 8 -23 35 -35 60 -13 25 -32 55
-43 67 -12 12 -17 27 -13 34 5 8 4 10 -4 5 -7 -5 -19 0 -29 11 -20 22 -117 95
-148 111 -12 6 -60 22 -107 36 -75 22 -93 24 -154 15 -102 -14 -109 -16 -147
-57 -46 -48 -65 -91 -45 -102 138 -79 175 -189 107 -322 -36 -69 -39 -73 -83
-121 -35 -36 -65 -56 -145 -95 -68 -33 -174 -36 -260 -7 -113 37 -215 183
-195 277 18 84 108 146 193 133 52 -8 87 -39 137 -120 17 -27 47 -62 67 -78
71 -57 190 -42 217 25 21 51 24 64 22 81 -1 9 3 17 9 17 6 0 10 10 8 23 -2 12
-9 21 -16 19 -10 -2 -11 2 -4 14 10 19 4 30 -37 67 -89 81 -93 88 -87 130 27
168 238 245 424 156 35 -17 66 -28 69 -25 4 3 0 25 -7 48 -7 24 -14 48 -14 53
-1 6 -5 11 -10 12 -5 1 -12 5 -15 10 -3 4 -31 21 -61 38 -69 36 -151 40 -220
8 -73 -33 -152 -112 -190 -190 -30 -59 -34 -78 -34 -148 -1 -44 2 -89 6 -100
6 -15 2 -23 -17 -32 -14 -6 -23 -8 -20 -3 3 4 -6 15 -20 24 -24 16 -33 11 -17
-10 4 -5 -3 2 -15 15 -12 14 -36 52 -54 85 -26 51 -30 68 -26 108 22 185 222
332 452 331 96 0 165 -24 243 -83 29 -22 55 -40 57 -40 11 0 -82 131 -97 138
-5 2 -8 9 -8 14 0 6 -32 43 -70 82 -39 39 -95 105 -125 146 -30 41 -59 81 -65
88 -6 6 -8 12 -5 12 4 0 -3 12 -14 26 -57 73 -121 311 -142 526 -12 122 -15
135 -39 160 l-27 26 23 10 c24 12 26 20 44 187 15 128 52 304 83 386 59 155
101 218 276 407 53 57 99 109 104 117 4 8 -25 -1 -69 -22 -273 -130 -624 48
-624 315 0 82 17 131 60 174 31 31 45 38 76 38 60 0 69 -11 49 -50 -27 -52
-17 -158 23 -242 55 -113 178 -208 272 -208 97 0 209 76 229 156 14 55 9 65
-22 37 -77 -71 -226 -91 -332 -44 -43 19 -110 87 -125 127 -15 39 -12 96 8
125 9 14 34 41 56 60 33 30 39 43 43 85 10 102 -30 171 -105 181 -79 11 -147
-36 -211 -145 -36 -60 -76 -85 -141 -90 -105 -6 -170 62 -170 180 0 101 49
169 160 222 59 28 74 31 160 31 88 0 101 -3 162 -33 83 -41 186 -138 217 -207
50 -108 23 -225 -66 -290 -54 -39 -57 -48 -33 -95 41 -81 134 -99 268 -54 200
68 316 154 383 286 28 54 33 76 37 154 5 98 -7 152 -53 244 -84 167 -282 325
-490 390 -96 30 -259 38 -342 17 -64 -17 -153 -55 -153 -66 0 -3 56 -5 126 -3
99 3 141 -1 202 -16 101 -26 182 -65 240 -116 26 -23 69 -54 95 -70 70 -40
113 -111 136 -223 10 -49 21 -95 25 -101 11 -19 -40 -25 -92 -12 -89 22 -141
81 -144 164 -2 39 -5 43 -19 35 -10 -5 -35 -9 -56 -9 -43 1 -144 39 -150 57
-3 7 25 27 63 46 l66 34 -36 30 c-74 61 -169 93 -275 93 -139 0 -417 -135
-726 -353 -295 -208 -395 -253 -534 -245 -95 6 -153 32 -232 106 -41 38 -70
76 -95 127 l-36 73 -39 -77 c-66 -132 -180 -217 -307 -228 -110 -10 -247 40
-392 141 -363 253 -556 366 -723 423 -91 31 -110 34 -182 30 -94 -5 -179 -33
-235 -77 -22 -17 -40 -35 -40 -38 0 -4 24 -20 52 -37 28 -16 53 -36 56 -43 7
-21 -62 -42 -138 -42 l-70 0 0 -40 c0 -81 -51 -148 -128 -170 -69 -19 -128 -7
-105 22 6 7 14 47 17 88 11 120 64 203 154 241 24 10 60 35 80 54 54 52 177
111 262 125 39 7 125 10 190 9 65 -2 116 -1 113 4 -21 34 -186 77 -297 77
-296 0 -622 -192 -744 -438 -36 -73 -37 -80 -37 -181 0 -100 2 -110 34 -175
49 -101 151 -199 261 -253 157 -76 294 -102 359 -68 39 20 81 72 81 100 0 16
-14 33 -49 58 -171 123 -95 380 148 496 71 34 82 36 171 36 81 0 103 -4 150
-26 112 -52 170 -130 170 -227 0 -67 -18 -109 -63 -149 -48 -42 -95 -50 -153
-28 -45 17 -66 40 -124 135 -38 63 -91 94 -160 95 -51 0 -62 -4 -89 -29 -38
-37 -55 -86 -48 -143 4 -36 14 -54 49 -92 85 -88 95 -120 57 -197 -29 -61 -88
-110 -155 -130 -96 -28 -187 -10 -292 57 -18 12 -34 20 -36 18 -1 -2 1 -23 6
-45 10 -50 61 -104 127 -136 159 -78 361 51 411 261 14 60 8 154 -11 177 -10
13 -10 17 2 25 55 35 143 -20 174 -109 51 -151 -27 -317 -185 -396 -180 -90
-379 -71 -508 47 -42 40 -44 40 -29 12 9 -16 66 -93 127 -170 61 -77 132 -176
157 -220 84 -141 141 -346 168 -604 12 -114 17 -138 34 -152 l21 -17 -21 -13
c-17 -12 -22 -33 -34 -159 -23 -228 -58 -382 -117 -510 -28 -61 -157 -244
-237 -336 -35 -40 -98 -139 -113 -177 -6 -14 2 -11 31 12 58 46 155 88 219 96
120 14 313 -54 396 -140 73 -75 108 -173 92 -259 -4 -22 -13 -36 -21 -36 -8 0
-15 -4 -15 -9 0 -5 -23 -33 -51 -62 l-50 -52 7 38 c4 24 1 64 -10 109 -8 39
-18 87 -21 107 -6 44 -102 172 -122 165 -8 -3 -11 -1 -8 4 3 5 -5 15 -19 22
-14 6 -26 16 -26 21 0 6 -3 7 -7 4 -3 -4 -11 -3 -17 2 -21 17 -117 33 -154 26
-54 -10 -120 -41 -143 -67 -25 -29 -58 -97 -59 -121 0 -15 7 -13 53 12 68 38
150 55 220 47 116 -15 227 -118 227 -211 0 -39 -19 -73 -33 -59 -3 4 -9 -5
-12 -19 -5 -18 -12 -24 -23 -20 -10 4 -13 2 -8 -5 4 -7 1 -12 -8 -12 -9 0 -15
-3 -15 -7 3 -21 -2 -34 -11 -28 -6 4 -10 3 -8 -2 1 -4 -2 -31 -6 -59 -10 -69
6 -126 46 -159 29 -24 38 -27 90 -23 69 5 125 40 175 108 77 108 85 114 154
117 51 3 70 0 97 -16 63 -40 96 -133 72 -206 -7 -20 -14 -34 -17 -31 -3 3 -18
-14 -33 -38 -68 -107 -217 -155 -360 -116 -50 13 -183 99 -215 138 -35 43 -74
115 -89 164 -13 41 -13 56 -2 98 7 28 24 62 37 76 27 29 115 85 122 78 2 -3 7
4 9 14 8 28 -62 105 -117 132 -59 28 -133 28 -250 0 -104 -25 -163 -52 -255
-118 -36 -26 -71 -45 -78 -44 -7 2 -15 -4 -18 -13 -7 -17 -34 -21 -34 -5 0 6
7 13 15 16 8 3 17 22 21 42 4 21 10 39 15 42 10 7 -1 60 -12 60 -5 0 -9 -14
-9 -31 0 -25 -4 -30 -17 -27 -16 4 -18 -1 -14 -39 2 -27 -1 -43 -8 -43 -6 0
-11 14 -11 31 0 17 -6 36 -13 44 -14 14 -14 14 -63 -165 -9 -30 -19 -64 -24
-75 -15 -35 -12 33 6 126 38 201 101 330 264 539 113 145 152 204 207 315 62
123 77 183 78 310 0 126 -9 157 -67 227 -21 26 -38 49 -38 52 0 3 9 10 21 17
18 9 26 6 50 -17 45 -43 85 -112 105 -179 14 -47 18 -96 19 -225 0 -91 -4
-183 -8 -205 -11 -52 2 -37 37 42 50 115 76 259 83 455 l6 177 -32 30 -33 31
26 12 c15 6 29 23 33 36 11 44 -6 303 -26 402 -26 130 -114 367 -96 260 3 -19
8 -93 11 -165 9 -194 -27 -331 -107 -413 -30 -30 -46 -32 -77 -7 -1 1 13 26
32 54 47 69 56 107 56 227 0 82 -5 117 -26 180 -37 114 -73 176 -228 394 -77
107 -163 240 -192 295 -110 210 -143 413 -151 933 l-5 343 564 -4 c622 -5 612
-4 790 -72 174 -67 299 -169 448 -365 147 -194 253 -280 387 -315 78 -20 122
-19 190 6 144 54 232 215 233 424 0 244 -164 441 -398 477 l-71 11 30 38 c59
74 167 100 255 60z m-263 -312 c73 -38 125 -141 112 -225 -13 -88 -113 -174
-204 -174 -171 0 -280 187 -188 325 65 97 176 126 280 74z m1205 2 c43 -22 73
-53 96 -97 72 -144 -28 -297 -194 -297 -176 0 -271 197 -164 339 52 70 181 97
262 55z m-964 -440 c35 -39 4 -90 -47 -77 -35 8 -46 49 -22 76 23 25 47 25 69
1z m594 3 c33 -23 26 -65 -11 -78 -35 -13 -61 2 -65 36 -3 26 20 58 41 58 7 0
23 -7 35 -16z m-1162 -338 c131 -39 307 -105 334 -125 14 -10 32 -30 40 -44
13 -23 13 -28 -4 -46 -27 -29 -87 -44 -123 -30 -15 6 -62 43 -103 83 -111 108
-197 146 -332 146 -43 0 -78 4 -78 10 0 37 151 41 266 6z m1915 4 l24 -19 -78
-1 c-82 0 -172 -24 -237 -63 -19 -11 -69 -53 -111 -94 -74 -70 -78 -73 -125
-73 -84 0 -123 37 -94 89 14 28 59 49 220 107 172 61 219 72 306 73 58 1 76
-3 95 -19z m-3211 -84 c15 -20 9 -56 -12 -70 -20 -12 -58 16 -58 44 0 36 46
53 70 26z m4285 -6 c17 -18 17 -21 1 -45 -31 -47 -86 -17 -72 38 8 33 44 37
71 7z m-3105 -5 c74 -38 65 -142 -13 -163 -66 -18 -127 22 -127 82 1 37 17 60
56 81 36 19 48 19 84 0z m1978 4 c56 -19 80 -89 47 -135 -51 -73 -179 -37
-179 51 0 39 17 63 59 81 37 16 36 16 73 3z m-906 -96 c65 -46 100 -102 106
-167 6 -69 -11 -118 -57 -169 -74 -83 -180 -101 -280 -49 -74 38 -111 92 -118
171 -7 73 9 122 56 174 52 58 101 78 183 75 56 -3 74 -9 110 -35z m-1010 -587
c192 -41 306 -153 316 -311 3 -43 -1 -88 -8 -111 -40 -128 -166 -201 -275
-160 -79 31 -118 101 -95 171 26 78 114 89 187 23 l21 -20 16 30 c20 39 20 63
1 110 -74 175 -385 219 -553 77 -18 -15 -45 -51 -60 -79 -24 -46 -27 -61 -27
-156 0 -100 2 -109 34 -175 52 -106 141 -187 369 -338 246 -163 331 -226 403
-299 118 -119 178 -239 187 -369 5 -89 -6 -130 -49 -179 -16 -19 -37 -48 -46
-65 -71 -133 -208 -243 -362 -289 -72 -21 -225 -21 -310 0 -119 30 -219 95
-257 167 -8 15 -19 25 -23 22 -14 -8 -34 92 -26 132 21 113 102 183 210 183
85 0 147 -42 166 -113 8 -32 7 -45 -9 -75 -43 -82 -122 -92 -192 -22 -31 31
-41 36 -50 25 -6 -7 -10 -31 -7 -52 l4 -38 2 45 3 45 8 -48 c18 -102 86 -160
227 -193 91 -21 170 -13 250 26 65 32 103 71 144 150 21 39 24 59 24 150 0 97
-2 110 -31 170 -17 36 -51 87 -75 115 -24 27 -38 45 -30 40 10 -5 12 -4 7 3
-4 7 -14 12 -22 12 -9 0 -12 5 -8 12 5 8 2 9 -12 4 -10 -4 -16 -4 -12 -1 9 9
-97 104 -167 149 -382 247 -496 353 -556 523 -27 74 -29 211 -5 302 41 152
148 296 265 355 120 61 284 81 423 52z m760 -146 c42 -74 144 -261 228 -415
84 -154 178 -325 209 -381 l56 -100 153 295 c229 442 383 735 391 743 3 4 97
8 209 10 l202 3 0 -37 c0 -32 -4 -38 -20 -38 -30 0 -69 -28 -87 -64 -14 -26
-15 -71 -12 -321 4 -386 0 -1450 -5 -1444 -3 3 -6 56 -7 118 -1 62 -7 139 -14
170 -7 31 -12 71 -12 88 0 33 -8 51 -19 40 -3 -3 -7 -122 -7 -264 -2 -252 -1
-259 22 -311 19 -42 26 -50 37 -41 8 6 14 18 14 26 0 12 2 12 15 -1 9 -9 34
-21 55 -27 38 -11 40 -14 40 -51 0 -41 -13 -48 -46 -23 -10 8 -31 15 -46 15
-17 0 -45 15 -74 41 l-47 41 -76 -4 c-67 -3 -82 -7 -125 -37 -26 -18 -70 -42
-97 -51 l-49 -18 0 36 c0 34 3 38 44 55 26 11 48 28 55 43 15 33 16 1594 1
1594 -5 0 -10 -4 -10 -9 0 -5 -34 -69 -75 -142 -41 -72 -75 -135 -75 -138 0
-3 -16 -30 -35 -58 -19 -29 -35 -57 -35 -63 0 -5 -5 -10 -11 -10 -5 0 -8 -4
-5 -8 3 -5 -4 -21 -15 -38 -10 -16 -19 -24 -19 -19 -1 6 -9 -4 -18 -22 -38
-72 -98 -171 -134 -224 -21 -31 -38 -59 -38 -63 0 -4 -12 -25 -27 -48 -16 -23
-34 -57 -40 -77 -7 -20 -11 -25 -8 -12 l4 25 -25 -27 c-21 -23 -23 -30 -13
-48 8 -15 8 -19 0 -15 -6 4 -11 1 -12 -6 0 -9 -2 -8 -6 2 -3 8 -15 28 -26 44
-11 16 -31 50 -43 75 -13 25 -35 59 -49 75 -14 17 -23 36 -20 43 2 8 0 11 -5
8 -5 -3 -12 6 -16 20 -3 14 -10 25 -15 25 -5 0 -15 12 -21 28 -7 15 -22 43
-33 62 -53 87 -85 152 -79 162 5 7 2 8 -6 3 -10 -6 -12 -4 -7 9 4 9 3 15 -2
11 -5 -3 -16 7 -23 22 -8 16 -48 89 -89 163 -42 74 -79 142 -82 150 -4 8 -17
31 -28 50 -42 68 -118 208 -168 308 -41 82 -51 112 -51 152 l0 49 138 3 c81 2
141 -1 148 -7 6 -5 45 -71 86 -145z m-2277 121 c82 -38 142 -138 131 -218 -20
-147 -152 -228 -288 -177 -78 29 -138 116 -138 199 0 152 160 258 295 196z
m4908 8 c47 -13 115 -72 134 -116 7 -18 13 -56 13 -85 -1 -168 -168 -266 -321
-188 -116 60 -134 251 -32 341 65 57 125 71 206 48z m-2863 -928 l0 -436 -41
74 c-22 41 -46 83 -54 95 -13 17 -15 92 -15 471 l1 450 54 -109 55 -108 0
-437z m-2450 407 c0 -100 19 -147 91 -230 27 -31 49 -61 49 -67 0 -30 -100 8
-153 58 -54 49 -84 131 -72 195 8 39 59 126 75 126 6 0 10 -33 10 -82z m5648
28 c25 -38 32 -59 32 -97 0 -87 -47 -165 -129 -218 -47 -30 -101 -41 -101 -21
0 6 24 39 54 74 74 87 91 135 83 237 -6 73 -5 80 11 77 9 -2 32 -25 50 -52z
m-5452 -58 c28 -29 71 -83 97 -119 62 -89 136 -154 240 -212 47 -26 89 -52 92
-57 3 -5 -35 -30 -84 -55 -106 -55 -166 -105 -212 -177 -55 -88 -90 -127 -147
-164 -29 -20 -55 -34 -56 -32 -2 1 -6 39 -9 83 -9 123 31 206 128 271 27 19
45 34 39 34 -12 0 -185 -119 -222 -154 -44 -40 -57 -76 -62 -181 -3 -57 -9
-100 -15 -100 -5 0 -25 29 -43 65 -28 55 -33 72 -28 112 9 85 66 162 149 204
55 28 184 64 231 64 17 0 49 5 71 11 39 11 40 12 15 22 -96 39 -134 60 -174
97 -57 53 -96 129 -96 189 0 77 12 151 24 151 7 0 34 -24 62 -52z m5268 35
c17 -59 17 -154 1 -203 -22 -66 -107 -153 -189 -194 -34 -17 -54 -32 -49 -37
5 -5 48 -14 94 -19 84 -10 168 -33 225 -63 38 -20 97 -83 120 -127 35 -69 18
-169 -41 -244 -24 -32 -33 -8 -37 100 -3 87 -6 105 -28 138 -31 47 -216 186
-247 186 -4 0 12 -13 35 -29 49 -32 105 -105 123 -158 12 -36 4 -203 -10 -203
-3 0 -29 15 -57 34 -52 35 -79 66 -148 169 -49 73 -84 102 -202 167 -52 29
-94 56 -94 60 0 5 42 32 93 61 113 65 162 109 244 221 56 77 135 157 155 158
4 0 9 -8 12 -17z m-5469 -297 c35 -14 108 -46 162 -72 l97 -46 -145 -50 c-128
-45 -154 -50 -234 -52 -100 -1 -124 7 -223 82 l-52 39 52 40 c92 69 123 81
215 82 44 1 82 -6 128 -23z m5865 0 c19 -10 59 -36 88 -58 l54 -40 -39 -34
c-110 -99 -232 -120 -371 -63 -86 35 -204 68 -242 69 -33 0 -20 9 100 62 177
78 217 89 300 85 46 -2 89 -11 110 -21z m-5438 -672 c52 -26 76 -53 98 -111
25 -67 25 -100 1 -155 -22 -50 -60 -87 -121 -119 -39 -20 -48 -21 -97 -11
-113 23 -183 105 -186 214 -2 90 58 169 151 199 37 12 114 4 154 -17z m4930
-6 c64 -35 103 -105 103 -182 0 -78 -25 -128 -84 -172 -51 -37 -128 -55 -141
-34 -4 7 -13 9 -19 5 -16 -9 -71 14 -71 30 0 7 -7 16 -16 19 -10 4 -13 2 -8
-6 5 -7 3 -8 -5 -4 -7 5 -10 14 -7 22 3 7 0 11 -7 8 -7 -2 -20 9 -30 26 -10
16 -15 30 -12 30 3 0 0 10 -6 22 -18 33 -12 105 12 154 21 45 60 80 113 101
44 18 129 9 178 -19z m-2903 -530 l1 -88 -40 0 c-45 0 -46 1 -26 33 8 12 22
60 32 106 22 99 31 84 33 -51z m466 -119 c101 -47 149 -163 114 -270 -17 -49
-75 -116 -119 -139 -27 -14 -59 -20 -103 -20 -52 0 -71 5 -108 28 -56 37 -73
56 -98 115 -49 115 -1 243 109 291 52 23 151 20 205 -5z m1052 -6 c-20 -2 -52
-2 -70 0 -17 2 0 4 38 4 39 0 53 -2 32 -4z m-144 -10 c-24 -2 -62 -2 -85 0
-24 2 -5 4 42 4 47 0 66 -2 43 -4z m-1944 -339 c25 -20 31 -34 31 -64 0 -31
-7 -44 -36 -70 -30 -26 -43 -31 -68 -26 -30 6 -79 53 -70 67 2 4 -1 20 -8 34
-11 25 -10 30 20 56 42 38 89 39 131 3z m446 16 c28 -11 46 -41 27 -48 -7 -2
-9 -8 -6 -13 14 -24 -43 -60 -162 -102 -97 -35 -165 -67 -160 -75 3 -4 -3 -8
-12 -9 -9 -1 -37 -9 -62 -18 -68 -26 -169 -31 -208 -11 -18 9 -32 19 -32 21 0
3 27 2 60 -2 122 -12 283 66 365 179 25 34 55 68 68 75 27 15 86 17 122 3z
m1092 -5 c12 -9 41 -43 65 -77 78 -111 235 -187 359 -174 64 6 77 -4 29 -24
-64 -26 -154 -9 -326 64 -208 88 -242 105 -265 134 -25 32 -24 56 4 75 29 21
106 21 134 2z m446 -5 c53 -42 39 -125 -27 -157 -48 -22 -85 -8 -114 45 -27
48 -23 73 16 109 32 29 89 31 125 3z m-3493 5 c0 -9 -34 -45 -43 -45 -10 0 25
49 36 50 4 0 7 -2 7 -5z m314 -83 c-14 -22 -41 -27 -59 -12 -20 17 -19 26 6
51 l21 21 21 -21 c17 -17 19 -25 11 -39z m4280 25 c8 -22 6 -30 -10 -42 -26
-20 -31 -19 -50 10 -16 24 -16 27 2 46 23 26 46 21 58 -14z m-4649 -17 c-5 -9
-42 -94 -48 -110 -3 -8 -4 5 -4 29 1 23 3 38 5 31 2 -6 10 1 18 16 15 28 10
49 -6 24 -6 -8 -10 -10 -10 -4 0 6 3 13 6 17 7 7 44 5 39 -3z m2264 -164 c30
-15 77 -51 106 -80 58 -58 121 -173 112 -207 -9 -35 9 -8 22 33 16 49 80 146
126 191 92 90 236 120 372 79 86 -26 207 -102 366 -228 201 -159 487 -342 612
-390 57 -22 87 -28 160 -28 85 -1 96 1 166 36 49 24 94 57 134 97 33 34 66 61
73 61 6 0 12 7 12 15 0 19 -16 20 -23 1 -12 -31 -187 1 -187 33 0 17 75 34
153 35 65 1 76 3 71 16 -16 39 -16 127 -1 157 33 64 113 103 209 103 l31 0
-23 -25 c-18 -19 -24 -38 -25 -73 -1 -26 -3 -65 -5 -87 l-3 -40 -7 40 c-4 22
-8 30 -9 19 -1 -29 -26 -75 -35 -67 -4 4 -4 0 0 -10 12 -31 -69 -150 -149
-218 -92 -78 -163 -114 -270 -136 -74 -15 -97 -16 -168 -5 -49 7 -108 24 -146
41 -35 17 -65 26 -68 20 -4 -5 -13 -5 -25 1 -10 5 -27 7 -36 3 -16 -6 -17 -5
-4 9 13 14 17 14 37 1 13 -9 23 -12 23 -9 0 20 -70 46 -122 46 -62 0 -91 7
-82 21 8 13 -20 11 -33 -2 -9 -9 -10 -7 -6 10 6 22 -11 29 -23 9 -4 -7 -3 -8
4 -4 18 11 14 0 -5 -15 -10 -7 -15 -10 -11 -5 4 4 -3 26 -15 49 l-21 40 -9
-26 c-8 -26 -27 -38 -27 -17 0 6 5 10 11 10 5 0 7 5 3 12 -6 9 -9 9 -12 0 -2
-7 -8 -12 -14 -12 -6 0 -8 7 -4 15 3 9 0 15 -9 15 -16 0 -20 -25 -6 -35 5 -3
24 -24 42 -48 l33 -42 -38 35 c-57 53 -149 178 -140 191 4 7 3 9 -4 5 -6 -3
-13 3 -17 14 -3 11 -11 20 -16 20 -5 0 -9 7 -9 15 0 8 -3 15 -7 15 -5 0 -21
18 -37 39 -19 26 -34 37 -44 33 -9 -3 -13 -1 -9 5 4 6 0 14 -9 17 -8 3 -12 11
-8 17 4 7 3 10 -2 7 -5 -3 -36 14 -69 38 -109 79 -137 89 -255 89 -95 0 -110
-3 -156 -27 -28 -15 -63 -41 -78 -58 -14 -17 -26 -28 -26 -23 0 12 -39 -48
-56 -86 -8 -19 -16 -49 -19 -65 -2 -17 -9 -55 -16 -85 -14 -67 -6 -141 26
-233 63 -180 191 -292 369 -322 l71 -12 -26 -17 c-27 -18 -80 -20 -111 -5 -11
5 -18 5 -18 -1 0 -5 8 -12 18 -14 14 -4 14 -5 -3 -6 -28 -1 -99 25 -103 38 -5
14 15 15 23 1 3 -5 16 -10 28 -10 21 1 21 1 -3 15 -14 8 -32 14 -41 15 -19 0
-32 -25 -23 -43 3 -7 -1 -4 -9 6 -8 9 -19 17 -25 17 -18 0 -22 -29 -5 -45 13
-13 17 -14 24 -3 7 10 9 9 9 -4 0 -23 60 -34 116 -21 53 12 59 -1 8 -17 -60
-20 -154 10 -204 66 -14 15 -20 25 -15 22 6 -3 18 3 27 13 12 12 13 19 5 22
-7 2 3 4 22 4 l33 0 -28 -15 c-28 -15 -46 -33 -39 -40 2 -2 21 9 42 25 l40 28
-43 33 c-24 18 -41 26 -38 17 3 -8 14 -17 25 -20 10 -4 19 -11 19 -16 0 -5
-10 -3 -23 6 -13 8 -27 12 -30 8 -4 -3 -7 2 -7 12 0 14 -3 15 -15 5 -12 -10
-15 -10 -15 3 0 8 -7 17 -15 21 -8 3 -14 16 -14 28 1 17 2 18 6 6 5 -19 23
-25 23 -8 0 6 -12 29 -26 51 -33 52 -62 138 -70 208 -5 39 -9 49 -16 37 -6
-10 -4 -39 3 -76 12 -60 6 -97 -7 -46 l-6 27 -13 -24 c-7 -13 -15 -41 -19 -62
-6 -30 -10 -35 -18 -24 -7 10 -8 7 -4 -13 5 -23 3 -28 -14 -28 -11 0 -20 -5
-20 -11 0 -6 7 -9 15 -5 8 3 15 3 15 1 0 -7 -24 -60 -30 -65 -3 -3 -14 -23
-25 -45 -41 -83 -147 -155 -227 -155 -22 0 -121 41 -115 47 2 2 17 -2 33 -8
57 -23 157 -19 147 7 -5 14 13 19 46 14 12 -1 13 1 3 13 -7 8 -12 19 -11 23 4
22 -2 33 -15 28 -8 -3 -17 -1 -20 4 -3 5 -26 -1 -51 -14 -25 -12 -70 -28 -100
-35 -48 -11 -57 -10 -82 6 l-28 19 74 12 c194 33 316 147 382 356 28 88 31
110 26 174 -12 158 -125 319 -252 359 -87 27 -194 18 -281 -25 -36 -18 -75
-41 -85 -51 -11 -11 -25 -20 -31 -22 -17 -3 -33 -19 -41 -39 -3 -10 -12 -18
-18 -18 -7 0 -8 5 -3 13 5 7 0 3 -11 -10 -19 -21 -21 -21 -32 -5 -9 14 -13 15
-24 4 -12 -11 -11 -12 4 -7 13 5 17 2 17 -13 0 -23 -23 -45 -35 -34 -5 4 -5 2
-2 -5 4 -6 4 -19 1 -28 -6 -13 -9 -14 -16 -3 -7 10 -8 8 -4 -5 5 -15 -58 -109
-110 -164 -7 -7 -14 -18 -16 -25 -4 -10 -8 -10 -21 1 -10 7 -17 18 -17 24 0 7
4 7 12 -1 13 -13 38 2 38 23 0 7 7 16 16 19 15 6 14 10 -6 31 -15 16 -18 25
-10 25 7 0 18 -7 25 -17 9 -13 14 -13 20 -3 5 8 4 11 -3 6 -6 -3 -12 2 -14 14
-3 17 -6 18 -28 7 -26 -13 -33 -33 -17 -54 12 -17 -2 -36 -21 -28 -8 3 -20 0
-25 -7 -9 -13 -6 0 10 39 5 12 3 14 -7 8 -10 -6 -12 -4 -7 8 9 23 -6 21 -27
-2 -14 -15 -15 -20 -4 -24 7 -2 3 -2 -10 0 -15 2 -50 -14 -105 -50 -119 -78
-274 -162 -337 -183 -86 -30 -214 -25 -315 10 -44 16 -93 39 -108 52 -16 13
-33 24 -38 24 -5 0 -9 7 -9 15 0 8 -7 15 -15 15 -8 0 -15 7 -15 16 0 11 6 14
22 8 20 -6 21 -5 9 10 -18 22 -6 33 16 15 16 -12 16 -11 0 8 -11 12 -24 20
-31 17 -7 -3 -13 2 -13 11 0 8 4 15 9 15 17 0 79 -64 74 -77 -3 -7 -2 -12 2
-11 4 1 32 -14 62 -34 112 -74 242 -86 373 -33 146 60 404 225 597 385 256
210 346 253 525 247 75 -3 99 -8 144 -31z m2788 -8 c-3 -8 -6 -5 -6 6 -1 11 2
17 5 13 3 -3 4 -12 1 -19z m-4734 -77 c89 -21 157 -103 143 -173 -3 -18 -7
-38 -8 -45 -1 -7 -5 -10 -9 -7 -4 2 -10 0 -14 -6 -3 -5 -1 -10 4 -10 6 0 11
-7 11 -15 0 -12 16 -15 80 -15 96 0 160 -21 140 -45 -7 -8 -21 -15 -31 -15
-11 0 -28 -5 -38 -11 -11 -8 -28 -9 -47 -4 -16 5 -33 9 -39 9 -5 1 -12 4 -15
7 -3 3 -21 10 -40 15 l-35 10 -1 70 c0 38 -1 74 -3 79 -2 6 -3 13 -2 18 2 11
-17 9 -24 -3 -3 -5 -3 -16 2 -22 4 -7 9 -24 11 -38 3 -23 2 -23 -16 -7 -25 23
-35 22 -22 -2 14 -27 13 -41 -4 -41 -8 0 -17 -6 -20 -12 -3 -7 -4 -1 -1 15 3
15 1 27 -5 27 -16 0 -23 -46 -10 -69 6 -12 8 -21 6 -21 -3 0 -17 23 -32 52
-20 40 -26 68 -28 125 0 40 -5 73 -9 73 -5 0 -6 4 -2 9 3 5 1 12 -5 16 -5 3
-15 15 -20 26 -9 17 -7 19 17 19 15 0 45 -4 66 -9z m-322 -216 c92 -223 292
-393 557 -475 127 -40 338 -37 430 6 19 9 36 13 39 10 4 -3 1 -6 -6 -6 -7 0
-9 -5 -6 -11 4 -6 1 -9 -6 -8 -19 3 -109 -24 -109 -32 0 -12 -237 0 -307 16
-83 19 -111 29 -257 95 -25 11 -50 20 -56 20 -39 0 -203 140 -245 210 -7 12
-4 12 15 -2 14 -9 24 -21 23 -27 -2 -6 2 -11 7 -11 16 0 11 16 -12 36 -11 10
-41 62 -66 114 -39 82 -46 104 -48 170 -3 75 -3 75 6 22 6 -30 24 -86 41 -127z
m5007 73 c-1 -13 -6 -28 -11 -35 -5 -7 -6 -17 -2 -23 3 -5 -1 -22 -9 -37 -9
-16 -20 -39 -26 -53 -12 -30 -29 -57 -53 -84 -10 -11 -15 -26 -12 -34 2 -7 1
-11 -3 -8 -11 6 -85 -68 -77 -76 4 -3 -2 -5 -12 -4 -12 1 -18 -6 -19 -21 -1
-23 6 -29 19 -16 4 3 1 13 -6 22 -10 14 -10 14 5 3 10 -8 18 -9 22 -3 4 6 13
8 21 4 8 -3 15 -1 15 5 0 6 -6 13 -12 15 -10 4 -10 6 -1 6 19 1 26 -18 13 -34
-7 -8 -15 -13 -19 -10 -4 2 -27 -9 -51 -25 -36 -24 -70 -30 -70 -13 0 3 6 3
13 0 16 -6 43 13 42 31 0 23 -15 17 -54 -20 -21 -21 -43 -38 -50 -38 -6 0 -10
-5 -9 -12 2 -6 -10 -14 -27 -18 -16 -4 -46 -17 -65 -28 -19 -12 -43 -22 -53
-22 -10 0 -16 -4 -13 -9 4 -5 -4 -7 -16 -3 -14 3 -19 2 -14 -6 5 -8 -2 -12
-21 -11 -28 0 -28 0 7 16 123 56 165 79 244 140 126 96 238 250 277 381 13 45
28 56 27 20z m-2780 -30 c35 -35 -7 -90 -47 -62 -34 24 -22 74 19 74 9 0 21
-5 28 -12z m602 -3 c19 -23 -5 -65 -36 -65 -25 0 -42 36 -30 65 7 20 50 19 66
0z m2287 -72 c-2 -16 -4 -3 -4 27 0 30 2 43 4 28 2 -16 2 -40 0 -55z m-4247
37 c8 -5 11 -10 5 -10 -5 0 -17 5 -25 10 -8 5 -10 10 -5 10 6 0 17 -5 25 -10z
m53 -17 c-7 -2 -19 -2 -25 0 -7 3 -2 5 12 5 14 0 19 -2 13 -5z m3172 -3 c-11
-5 -51 -8 -90 -7 l-70 1 75 6 c41 4 82 7 90 7 8 1 6 -2 -5 -7z m929 -6 c10
-27 6 -40 -8 -22 -11 15 -13 14 -13 -13 0 -17 -4 -34 -9 -37 -5 -4 -9 -13 -10
-19 -3 -37 -5 -43 -14 -43 -5 0 -6 7 -3 17 4 11 3 14 -5 9 -7 -4 -12 -1 -12 8
0 9 3 16 8 16 4 0 15 23 25 50 18 52 30 62 41 34z m-4006 -1 c-16 -2 -40 -2
-55 0 -16 2 -3 4 27 4 30 0 43 -2 28 -4z m3687 -13 c3 -5 1 -10 -4 -10 -6 0
-11 5 -11 10 0 6 2 10 4 10 3 0 8 -4 11 -10z m-1547 -25 c28 -9 64 -27 80 -40
35 -29 72 -103 72 -143 0 -41 -27 -113 -55 -144 -53 -61 -159 -92 -216 -63
-65 34 -149 193 -134 254 16 65 71 119 145 142 38 11 52 10 108 -6z m-1180
-10 c131 -55 161 -211 61 -320 -50 -55 -127 -82 -187 -66 -21 6 -58 25 -81 42
-47 33 -50 53 -4 22 33 -23 84 -45 89 -40 2 2 -17 14 -42 28 -25 13 -58 38
-71 56 -14 18 -29 30 -34 27 -5 -3 -6 2 -3 11 4 8 1 22 -6 30 -21 25 -6 101
27 143 62 77 162 103 251 67z m-1598 -76 c0 -5 -9 -1 -20 8 -11 10 -20 22 -20
27 0 5 9 1 20 -9 11 -10 20 -22 20 -26z m177 -5 c-3 -3 -12 -4 -19 -1 -8 3 -5
6 6 6 11 1 17 -2 13 -5z m4397 -10 c8 -3 12 -12 9 -20 -7 -19 -16 -18 -31 6
-12 20 -6 25 22 14z m-4540 -30 c3 -8 2 -12 -4 -9 -6 3 -10 10 -10 16 0 14 7
11 14 -7z m4505 -37 c-15 -12 -28 -29 -31 -37 -4 -12 -7 -10 -16 6 -9 18 -8
24 6 35 15 13 16 12 3 -3 -7 -10 -9 -18 -4 -18 12 0 43 37 43 52 0 9 3 9 13
-1 10 -10 7 -17 -14 -34z m-3419 15 c0 -4 -19 -26 -42 -49 -41 -41 -68 -54
-68 -32 0 5 4 8 9 5 14 -9 84 63 77 79 -3 9 0 12 10 8 7 -3 14 -8 14 -11z
m3567 -84 c-2 -18 -4 -4 -4 32 0 36 2 50 4 33 2 -18 2 -48 0 -65z m-1257 18
c0 -3 -4 -8 -10 -11 -5 -3 -10 -1 -10 4 0 6 5 11 10 11 6 0 10 -2 10 -4z
m-195 -56 c10 -11 16 -20 13 -20 -3 0 -13 9 -23 20 -10 11 -16 20 -13 20 3 0
13 -9 23 -20z m-2275 6 c0 -2 -7 -7 -16 -10 -8 -3 -12 -2 -9 4 6 10 25 14 25
6z m40 0 c0 -3 -15 -14 -32 -26 l-33 -22 28 26 c27 25 37 31 37 22z m2310 -58
c0 -5 -9 -3 -20 4 -11 7 -20 16 -20 20 0 5 9 3 20 -4 11 -7 20 -16 20 -20z
m-2665 13 c-47 -19 -120 -31 -183 -30 l-67 2 85 8 c47 5 101 13 120 18 44 11
72 12 45 2z m3705 1 c0 -5 -12 -14 -27 -21 l-28 -12 25 21 c29 22 30 23 30 12z
m337 -64 c-3 -7 -5 -2 -5 12 0 14 2 19 5 13 2 -7 2 -19 0 -25z m-1291 6 c18
-14 18 -14 -6 -3 -31 14 -36 19 -24 19 6 0 19 -7 30 -16z m174 -9 c62 -39 151
-58 275 -59 61 -1 130 2 155 6 l45 8 -40 -20 c-22 -11 -54 -20 -72 -20 -17 0
-35 -5 -39 -11 -8 -13 -157 -6 -209 10 -28 9 -29 9 -5 10 22 1 23 3 7 12 -10
6 -25 8 -33 5 -9 -3 -12 -1 -9 4 4 6 -8 10 -27 11 -64 2 -103 7 -128 17 -19 8
-20 11 -7 11 10 1 27 -4 38 -9 11 -7 19 -7 19 -1 0 5 -6 12 -12 15 -7 4 -2 4
12 2 l25 -5 -24 20 c-33 27 -18 24 29 -6z m-1357 -44 c2 -10 -2 -29 -9 -42
-14 -24 -14 -24 -8 6 4 23 3 26 -5 15 -6 -8 -11 -10 -11 -4 0 5 5 15 12 22 9
9 9 12 0 12 -7 0 -12 4 -12 10 0 16 28 0 33 -19z m-2433 -21 c9 -6 -31 -10
-117 -12 -104 -2 -129 0 -121 10 12 14 215 17 238 2z m163 3 c-18 -2 -48 -2
-65 0 -18 2 -4 4 32 4 36 0 50 -2 33 -4z m4713 -5 c47 -21 1 -28 -151 -22 -82
4 -177 7 -210 9 -81 3 -95 6 -60 14 51 12 395 11 421 -1z m-4124 -50 c-19 -19
-1042 -25 -1042 -7 0 10 93 11 423 7 343 -5 597 -1 627 10 2 1 -2 -4 -8 -10z
m65 6 c-3 -3 -12 -4 -19 -1 -8 3 -5 6 6 6 11 1 17 -2 13 -5z m1552 -56 c15
-29 44 -83 64 -119 39 -70 54 -135 43 -193 -5 -26 -12 -36 -26 -36 -25 0 -34
16 -21 37 9 16 10 16 11 -4 0 -13 4 -23 9 -23 12 0 12 98 1 105 -5 3 -8 -7 -7
-21 1 -15 -4 -29 -10 -31 -9 -3 -13 9 -13 41 0 57 -18 61 -22 4 -2 -23 -7 -43
-13 -45 -6 -2 -10 30 -9 82 0 58 -3 85 -11 85 -13 0 -13 -28 0 -50 5 -9 4 -15
-3 -18 -7 -2 -12 -10 -12 -19 0 -12 -2 -12 -16 1 -8 9 -22 16 -30 16 -8 0 -14
5 -14 10 0 6 -9 10 -20 10 -11 0 -20 -7 -20 -15 0 -8 -4 -15 -9 -15 -14 0 -28
-72 -20 -107 8 -40 -6 -44 -18 -6 -18 53 2 128 66 241 34 60 61 115 61 122 0
19 9 8 39 -52z m2556 42 c25 -11 -890 -11 -960 -1 -27 5 173 8 445 9 272 0
504 -3 515 -8z m-2249 -154 c12 -13 12 -15 -6 -13 -11 1 -20 5 -20 9 0 5 -12
6 -27 2 -22 -4 -25 -3 -13 5 21 15 49 14 66 -3z m-393 -97 c-4 -16 -8 -17 -14
-7 -6 9 -9 6 -9 -10 0 -13 -4 -21 -10 -17 -10 6 -4 31 13 52 13 18 26 7 20
-18z m37 -19 c0 -16 -4 -30 -10 -30 -5 0 -10 14 -10 30 0 17 5 30 10 30 6 0
10 -13 10 -30z m-63 -87 c-3 -10 -5 -4 -5 12 0 17 2 24 5 18 2 -7 2 -21 0 -30z
m93 27 c0 -5 -7 -10 -15 -10 -8 0 -15 5 -15 10 0 6 7 10 15 10 8 0 15 -4 15
-10z m-107 -87 c-3 -7 -6 -13 -8 -13 -2 0 -5 6 -8 13 -3 8 1 14 8 14 7 0 11
-6 8 -14z m201 -13 c-10 -16 -20 -27 -23 -25 -6 7 21 55 31 55 5 0 1 -13 -8
-30z m-62 -32 c-7 -7 -12 -8 -12 -2 0 14 12 26 19 19 2 -3 -1 -11 -7 -17z m21
-32 c-7 -12 -10 -12 -23 2 -13 14 -12 15 3 9 12 -4 17 -1 18 11 0 10 3 12 5 5
3 -7 2 -19 -3 -27z"/>
<path d="M2813 7513 l-203 -3 0 -200 c0 -110 2 -200 4 -200 3 0 21 28 42 61
75 124 207 242 352 315 54 27 61 33 37 32 -16 -2 -121 -4 -232 -5z"/>
<path d="M7373 7468 c147 -89 254 -198 327 -329 l30 -54 0 213 0 212 -182 0
c-101 0 -201 3 -223 6 -38 6 -35 3 48 -48z"/>
<path d="M3588 7003 c-9 -2 -34 -12 -54 -22 -41 -20 -38 -22 36 -35 62 -11
111 -55 153 -136 22 -41 44 -78 51 -83 16 -11 78 2 98 20 9 8 24 31 33 50 14
30 15 42 6 74 -14 46 -84 111 -139 127 -38 12 -149 15 -184 5z"/>
<path d="M6607 6996 c-20 -8 -53 -26 -72 -40 -105 -80 -80 -226 39 -226 l46 0
37 78 c46 93 93 132 172 140 42 4 49 7 40 18 -32 38 -188 56 -262 30z"/>
<path d="M2782 3868 c-16 -16 -15 -25 1 -25 7 0 13 9 13 19 0 21 1 21 -14 6z"/>
<path d="M2685 3700 c3 -5 8 -10 11 -10 2 0 4 5 4 10 0 6 -5 10 -11 10 -5 0
-7 -4 -4 -10z"/>
<path d="M2666 3659 c-8 -42 0 -50 14 -14 6 17 7 32 2 37 -6 6 -12 -4 -16 -23z"/>
<path d="M2749 3559 c-9 -17 -8 -20 3 -15 7 3 21 9 31 12 23 8 22 24 -3 24
-10 0 -24 -10 -31 -21z"/>
<path d="M3775 3320 c-11 -4 -23 -6 -27 -3 -4 2 -5 -4 -1 -13 5 -13 3 -15 -8
-9 -8 4 -11 5 -7 0 17 -19 -69 -135 -101 -135 -9 0 -36 -11 -60 -25 -50 -29
-115 -43 -125 -26 -4 6 -13 11 -19 11 -18 0 42 -47 97 -76 67 -35 177 -44 242
-19 53 20 118 74 140 116 16 32 20 144 4 134 -5 -3 -10 -2 -10 3 0 27 -88 56
-125 42z"/>
<path d="M6518 3302 c-30 -18 -58 -67 -58 -101 0 -31 27 -91 53 -120 12 -13
45 -34 72 -47 62 -29 168 -32 230 -6 51 21 125 64 125 71 0 3 -15 6 -32 7 -39
1 -69 9 -98 24 -11 6 -26 8 -32 4 -6 -4 -8 -3 -5 3 8 13 -16 35 -34 31 -8 -2
-13 3 -11 10 2 13 -33 66 -77 115 -30 32 -89 37 -133 9z"/>
<path d="M4534 7466 c-44 -20 -64 -53 -64 -107 0 -88 72 -136 155 -105 24 10
50 28 59 41 18 28 21 84 5 117 -25 54 -99 79 -155 54z"/>
<path d="M5744 7466 c-42 -19 -64 -53 -64 -99 0 -53 23 -91 65 -111 96 -46
201 52 161 148 -25 61 -101 90 -162 62z"/>
<path d="M4355 4700 c10 -11 20 -20 23 -20 3 0 -3 9 -13 20 -10 11 -20 20 -23
20 -3 0 3 -9 13 -20z"/>
<path d="M2652 5904 c-39 -20 -72 -78 -72 -126 0 -63 54 -117 118 -118 99 -1
163 105 112 187 -37 62 -102 85 -158 57z"/>
<path d="M7549 5871 c-33 -32 -39 -45 -39 -79 0 -22 4 -52 10 -66 13 -35 67
-66 114 -66 31 0 45 7 77 39 35 35 39 43 39 91 0 47 -4 56 -36 86 -29 28 -43
34 -81 34 -39 0 -50 -5 -84 -39z"/>
<path d="M2618 4400 c-32 -34 -38 -48 -38 -83 0 -54 17 -86 59 -114 50 -34
102 -31 146 8 99 87 50 229 -80 229 -43 0 -52 -4 -87 -40z"/>
<path d="M7559 4417 c-59 -39 -74 -98 -43 -163 39 -82 140 -97 201 -30 27 29
33 44 33 81 0 25 -7 59 -15 75 -31 60 -116 78 -176 37z"/>
<path d="M5055 3758 c-20 -24 -23 -33 -13 -39 11 -8 5 -12 -12 -11 -10 1 -3
-122 8 -148 14 -37 59 -77 99 -91 81 -26 186 22 211 96 17 49 10 122 -13 144
-16 15 -17 15 -6 -7 15 -29 12 -119 -6 -154 -7 -16 -16 -28 -19 -28 -2 0 3 15
12 33 l16 32 -33 -31 c-61 -57 -104 -67 -159 -39 -17 9 -30 13 -30 10 0 -2 -9
3 -21 13 -54 45 -65 126 -24 186 13 20 21 36 17 37 -4 0 2 4 12 8 17 7 17 8 3
14 -11 4 -25 -4 -42 -25z m25 -2 c0 -2 -8 -10 -17 -17 -16 -13 -17 -12 -4 4
13 16 21 21 21 13z"/>
<path d="M7251 2994 c0 -11 3 -14 6 -6 3 7 2 16 -1 19 -3 4 -6 -2 -5 -13z"/>
<path d="M7281 2994 c0 -11 3 -14 6 -6 3 7 2 16 -1 19 -3 4 -6 -2 -5 -13z"/>
<path d="M4250 2960 c-8 -5 -12 -12 -9 -15 4 -3 12 1 19 10 14 17 11 19 -10 5z"/>
<path d="M7245 2950 c3 -5 8 -10 11 -10 2 0 4 5 4 10 0 6 -5 10 -11 10 -5 0
-7 -4 -4 -10z"/>
<path d="M4201 2919 c-13 -10 -19 -19 -15 -19 13 1 48 29 43 34 -2 2 -15 -4
-28 -15z"/>
<path d="M7243 2883 c-7 -2 -13 -9 -13 -15 0 -7 4 -7 13 0 10 9 20 7 38 -5
l24 -17 -19 22 c-20 23 -23 24 -43 15z"/>
<path d="M6114 2854 c45 -69 42 -66 57 -48 12 15 12 17 -1 12 -9 -3 -21 7 -31
26 -9 16 -22 32 -30 35 -9 3 -8 -4 5 -25z"/>
<path d="M5161 2799 c-1 -31 -3 -72 -6 -90 -4 -27 -3 -29 3 -9 8 24 9 24 19 6
10 -18 11 -16 18 14 4 19 3 35 -3 39 -5 3 -14 26 -20 51 l-10 45 -1 -56z"/>
<path d="M7280 2820 c-6 -11 -8 -20 -6 -20 3 0 10 9 16 20 6 11 8 20 6 20 -3
0 -10 -9 -16 -20z"/>
<path d="M5192 2810 c0 -14 2 -19 5 -12 2 6 2 18 0 25 -3 6 -5 1 -5 -13z"/>
<path d="M6333 2790 c14 -11 28 -20 32 -20 4 0 -4 9 -18 20 -14 11 -28 20 -32
20 -4 0 4 -9 18 -20z"/>
<path d="M5211 2784 c0 -11 3 -14 6 -6 3 7 2 16 -1 19 -3 4 -6 -2 -5 -13z"/>
<path d="M6327 2759 c7 -7 15 -10 18 -7 3 3 -2 9 -12 12 -14 6 -15 5 -6 -5z"/>
<path d="M6397 2748 c7 -8 10 -18 6 -21 -3 -4 -1 -7 5 -7 21 0 21 16 -1 30
-19 12 -21 11 -10 -2z"/>
<path d="M5141 2624 c0 -11 3 -14 6 -6 3 7 2 16 -1 19 -3 4 -6 -2 -5 -13z"/>
<path d="M5171 2624 c0 -11 3 -14 6 -6 3 7 2 16 -1 19 -3 4 -6 -2 -5 -13z"/>
<path d="M5100 2512 c0 -25 -135 -162 -160 -162 -6 0 -10 -4 -10 -10 0 -18 17
-11 56 25 39 34 62 46 48 23 -4 -7 -3 -8 5 -4 9 6 9 11 0 22 -10 12 -9 13 4 9
10 -4 20 3 29 22 8 15 22 40 32 56 11 16 14 27 7 27 -6 0 -11 -4 -11 -8z"/>
<path d="M5330 2420 c0 -5 5 -10 11 -10 5 0 7 5 4 10 -3 6 -8 10 -11 10 -2 0
-4 -4 -4 -10z"/>
<path d="M5067 2403 c-7 -11 10 -40 18 -31 4 4 3 14 -3 24 -5 9 -12 12 -15 7z"/>
<path d="M5037 2356 c-5 -12 -13 -16 -23 -12 -17 6 -44 -9 -44 -25 0 -5 5 -9
11 -9 5 0 7 5 4 10 -3 6 0 10 8 10 8 0 17 -7 20 -14 4 -10 1 -13 -7 -10 -7 3
-18 -2 -25 -9 -9 -12 -8 -16 4 -21 9 -3 28 7 48 26 17 17 24 25 15 18 -20 -14
-25 -1 -7 17 6 6 9 17 7 24 -3 9 -7 7 -11 -5z"/>
<path d="M4838 2213 c7 -3 16 -2 19 1 4 3 -2 6 -13 5 -11 0 -14 -3 -6 -6z"/>
<path d="M3021 3024 c0 -11 3 -14 6 -6 3 7 2 16 -1 19 -3 4 -6 -2 -5 -13z"/>
<path d="M2992 2990 c0 -19 2 -27 5 -17 2 9 2 25 0 35 -3 9 -5 1 -5 -18z"/>
<path d="M5750 2830 c-8 -5 -24 -7 -35 -4 -12 3 -15 2 -9 -3 8 -6 6 -14 -7
-27 -17 -18 -18 -18 -12 3 3 13 1 21 -6 21 -7 0 -10 -4 -7 -9 4 -5 3 -11 -2
-13 -4 -1 -5 -36 -2 -77 5 -70 7 -75 44 -107 45 -39 83 -44 135 -16 38 20 71
72 71 112 1 25 1 25 16 5 15 -19 16 -18 9 15 -10 48 -20 66 -52 87 -31 21
-120 29 -143 13z"/>
<path d="M4525 2823 c-26 -9 -41 -10 -43 -3 -2 5 -8 7 -14 4 -6 -4 -5 -9 3
-15 10 -6 10 -13 1 -34 -7 -14 -12 -47 -12 -72 0 -41 5 -50 40 -85 48 -45 93
-50 145 -18 44 27 65 62 65 106 0 31 2 35 15 24 12 -10 13 -7 5 20 -12 43 -28
60 -54 60 -12 0 -26 4 -31 9 -18 16 -80 19 -120 4z"/>
<path d="M4750 2675 c-2 -34 -3 -36 -9 -15 l-7 25 -6 -27 c-3 -15 -1 -25 3
-22 13 8 11 -10 -3 -24 -6 -6 -9 -14 -7 -17 3 -2 14 8 25 23 15 20 18 36 13
62 l-6 35 -3 -40z"/>
<path d="M5190 2289 c0 -5 5 -7 10 -4 6 3 10 8 10 11 0 2 -4 4 -10 4 -5 0 -10
-5 -10 -11z"/>
<path d="M5170 2263 c0 -13 5 -23 10 -23 13 0 13 11 0 30 -8 12 -10 11 -10 -7z"/>
<path d="M5129 2250 c-6 -16 19 -50 37 -50 7 0 14 -6 17 -12 2 -7 8 -10 12 -6
10 10 -23 48 -41 48 -7 0 -14 8 -16 18 -3 13 -5 14 -9 2z"/>
<path d="M5244 2215 c4 -16 12 -34 18 -40 7 -7 8 -1 4 20 -4 17 -12 35 -18 40
-7 7 -8 1 -4 -20z"/>
<path d="M5281 2154 c0 -11 3 -14 6 -6 3 7 2 16 -1 19 -3 4 -6 -2 -5 -13z"/>
</g>
</svg>
